# xmcd
#
# Track frame offsets: 
#        150
#        8710
#        18420
#        81817
#        114602
#        131177
#        156977
#        170240
#        197935
#        219435
#        227882
#        243932
#        265117
#        274412
#        294685
#
# Disc length: 4246 seconds
#
# Revision: 2
# Processed by: cddbd v1.5.1PL2 Copyright (c) Steve Scherf et al.
# Submitted via: ExactAudioCopy v0.95b3
#
DISCID=e110940f
DTITLE=Stevie Ray Vaughan - Touch The Sky - Studio Sessions
DYEAR=1900
DGENRE=
TTITLE0=Little Wing Take 1
TTITLE1=Little Wing Take 2
TTITLE2=Little Wing - 3rd Stone from the Sun
TTITLE3=Life Without You
TTITLE4=So Excited
TTITLE5=Boiler Maker
TTITLE6=Shake and Bake
TTITLE7=Treat Me Right
TTITLE8=The Sky is Crying
TTITLE9=Slip Sliding Slim
TTITLE10=Come On Take 1
TTITLE11=Come On Take 2
TTITLE12=Hug, Kiss and Squeeze
TTITLE13=Hang Nails and Boogers
TTITLE14=Right Or Wrong
EXTD=
EXTT0=
EXTT1=
EXTT2=
EXTT3=
EXTT4=
EXTT5=
EXTT6=
EXTT7=
EXTT8=
EXTT9=
EXTT10=
EXTT11=
EXTT12=
EXTT13=
EXTT14=
PLAYORDER=
